<svg xmlns="http://www.w3.org/2000/svg" data-name="Layer 1" width="744.84799" height="747.07702" viewBox="0 0 744.84799 747.07702" xmlns:xlink="http://www.w3.org/1999/xlink"><path d="M299.205,705.80851l-6.56-25.872a335.96693,335.96693,0,0,0-35.643-12.788l-.828,12.024-3.358-13.247c-15.021-4.29394-25.24-6.183-25.24-6.183s13.8,52.489,42.754,92.617l33.734,5.926-26.207,3.779a135.92592,135.92592,0,0,0,11.719,12.422c42.115,39.092,89.024,57.028,104.773,40.06s-5.625-62.412-47.74-101.5c-13.056-12.119-29.457-21.844-45.875-29.5Z" transform="translate(-227.576 -76.46149)" fill="#f2f2f2"/><path d="M361.591,677.70647l7.758-25.538a335.93951,335.93951,0,0,0-23.9-29.371l-6.924,9.865,3.972-13.076c-10.641-11.436-18.412-18.335-18.412-18.335s-15.315,52.067-11.275,101.384l25.815,22.51-24.392-10.312a135.91879,135.91879,0,0,0,3.614,16.694c15.846,55.234,46.731,94.835,68.983,88.451s27.446-56.335,11.6-111.569c-4.912-17.123-13.926-33.926-24.023-48.965Z" transform="translate(-227.576 -76.46149)" fill="#f2f2f2"/><path d="M747.327,253.4445h-4.092v-112.1a64.883,64.883,0,0,0-64.883-64.883H440.845a64.883,64.883,0,0,0-64.883,64.883v615a64.883,64.883,0,0,0,64.883,64.883H678.352a64.883,64.883,0,0,0,64.882-64.883v-423.105h4.092Z" transform="translate(-227.576 -76.46149)" fill="#e6e6e6"/><path d="M680.97,93.3355h-31a23.02,23.02,0,0,1-21.316,31.714H492.589a23.02,23.02,0,0,1-21.314-31.714H442.319a48.454,48.454,0,0,0-48.454,48.454v614.107a48.454,48.454,0,0,0,48.454,48.454H680.97a48.454,48.454,0,0,0,48.454-48.454h0V141.7885a48.454,48.454,0,0,0-48.454-48.453Z" transform="translate(-227.576 -76.46149)" fill="#fff"/><path d="M531.234,337.96451a24.437,24.437,0,0,1,12.23-21.174,24.45,24.45,0,1,0,0,42.345A24.43391,24.43391,0,0,1,531.234,337.96451Z" transform="translate(-227.576 -76.46149)" fill="#ccc"/><path d="M561.971,337.96451a24.43594,24.43594,0,0,1,12.23-21.174,24.45,24.45,0,1,0,0,42.345A24.43391,24.43391,0,0,1,561.971,337.96451Z" transform="translate(-227.576 -76.46149)" fill="#ccc"/><circle cx="364.43401" cy="261.50202" r="24.45" fill="#6c63ff"/><path d="M632.872,414.3305h-142.5a5.123,5.123,0,0,1-5.117-5.117v-142.5a5.123,5.123,0,0,1,5.117-5.117h142.5a5.123,5.123,0,0,1,5.117,5.117v142.5A5.123,5.123,0,0,1,632.872,414.3305Zm-142.5-150.686a3.073,3.073,0,0,0-3.07,3.07v142.5a3.073,3.073,0,0,0,3.07,3.07h142.5a3.073,3.073,0,0,0,3.07-3.07v-142.5a3.073,3.073,0,0,0-3.07-3.07Z" transform="translate(-227.576 -76.46149)" fill="#ccc"/><rect x="227.576" y="76.46149" width="744.84799" height="747.07702" fill="none"/></svg>