<svg xmlns="http://www.w3.org/2000/svg" xmlns:xlink="http://www.w3.org/1999/xlink" width="1080" zoomAndPan="magnify" viewBox="0 0 810 809.999993" height="1080" preserveAspectRatio="xMidYMid meet" version="1.2"><defs><clipPath id="d727dc21ec"><path d="M 348.472656 196.859375 L 517.222656 196.859375 L 517.222656 365.609375 L 348.472656 365.609375 Z M 348.472656 196.859375 "/></clipPath><clipPath id="13de816c83"><path d="M 396 196.859375 L 517.222656 196.859375 L 517.222656 318 L 396 318 Z M 396 196.859375 "/></clipPath><clipPath id="47ba9fcb15"><path d="M 348.472656 196.859375 L 372.851562 196.859375 L 372.851562 365.445312 L 348.472656 365.445312 Z M 348.472656 196.859375 "/></clipPath><clipPath id="165237c15d"><path d="M 348.472656 341.0625 L 517.058594 341.0625 L 517.058594 365.445312 L 348.472656 365.445312 Z M 348.472656 341.0625 "/></clipPath><clipPath id="65f467785b"><path d="M 396.984375 196.683594 L 517.0625 196.683594 L 517.0625 221.0625 L 396.984375 221.0625 Z M 396.984375 196.683594 "/></clipPath><clipPath id="e4adc9bbcd"><path d="M 396.988281 293.066406 L 469.300781 293.066406 L 469.300781 317.449219 L 396.988281 317.449219 Z M 396.988281 293.066406 "/></clipPath><clipPath id="9d7df612ba"><path d="M 493.296875 245.152344 L 517.679688 245.152344 L 517.679688 365.445312 L 493.296875 365.445312 Z M 493.296875 245.152344 "/></clipPath><clipPath id="6f315f2ef5"><path d="M 396.984375 198.660156 L 421.367188 198.660156 L 421.367188 317.453125 L 396.984375 317.453125 Z M 396.984375 198.660156 "/></clipPath><clipPath id="2a8b494a3c"><path d="M 445.367188 221.066406 L 469.746094 221.066406 L 469.746094 269.824219 L 445.367188 269.824219 Z M 445.367188 221.066406 "/></clipPath><clipPath id="4a91414fae"><path d="M 191 150 L 563 150 L 563 471 L 191 471 Z M 191 150 "/></clipPath><clipPath id="ba82e109e7"><path d="M 232.917969 122.773438 L 591.902344 171.285156 L 545.402344 515.40625 L 186.414062 466.898438 Z M 232.917969 122.773438 "/></clipPath><clipPath id="0032ce3df8"><path d="M 232.917969 122.773438 L 591.902344 171.285156 L 545.402344 515.40625 L 186.414062 466.898438 Z M 232.917969 122.773438 "/></clipPath><clipPath id="5f84cce8aa"><path d="M 232.917969 122.773438 L 591.902344 171.285156 L 545.402344 515.40625 L 186.414062 466.898438 Z M 232.917969 122.773438 "/></clipPath></defs><g id="137a5bff77"><g clip-rule="nonzero" clip-path="url(#d727dc21ec)"><path style=" stroke:none;fill-rule:nonzero;fill:#ff6513;fill-opacity:1;" d="M 492.976562 341.359375 C 447.675781 341.359375 417.832031 341.359375 372.558594 341.359375 C 372.558594 277.570312 372.558594 260.652344 372.558594 196.859375 L 348.472656 196.859375 C 348.472656 215.109375 348.472656 347.179688 348.472656 365.445312 C 366.722656 365.445312 498.53125 365.445312 517.058594 365.445312 C 517.058594 320.152344 517.058594 290.289062 517.058594 245.027344 L 492.976562 245.027344 C 492.976562 278.835938 492.976562 307.550781 492.976562 341.359375 "/></g><g clip-rule="nonzero" clip-path="url(#13de816c83)"><path style=" stroke:none;fill-rule:nonzero;fill:#ff6513;fill-opacity:1;" d="M 396.640625 196.859375 C 396.640625 242.152344 396.640625 272.015625 396.640625 317.277344 C 423.453125 317.277344 442.011719 317.277344 468.890625 317.277344 L 468.890625 293.191406 C 451.460938 293.191406 438.152344 293.191406 420.726562 293.191406 C 420.726562 266.382812 420.726562 247.820312 420.726562 220.941406 L 444.808594 220.941406 C 444.808594 238.375 444.808594 251.679688 444.808594 269.113281 L 468.890625 269.113281 C 468.890625 251.679688 468.890625 238.375 468.890625 220.941406 C 486.292969 220.941406 499.59375 220.941406 517.058594 220.941406 L 517.058594 196.859375 C 471.761719 196.859375 441.917969 196.859375 396.640625 196.859375 "/></g><g clip-rule="nonzero" clip-path="url(#47ba9fcb15)"><path style=" stroke:none;fill-rule:nonzero;fill:#e92027;fill-opacity:1;" d="M 348.472656 196.859375 L 372.851562 196.859375 L 372.851562 365.421875 L 348.472656 365.421875 Z M 348.472656 196.859375 "/></g><g style="fill:#000000;fill-opacity:1;"><g transform="translate(55.772994, 605.162102)"><path style="stroke:none" d="M 39.210938 -102.203125 C 39.210938 -106.558594 35.601562 -110.167969 31.246094 -110.167969 C 26.890625 -110.167969 23.277344 -106.558594 23.277344 -102.203125 C 23.277344 -97.84375 26.890625 -94.234375 31.246094 -94.234375 C 35.601562 -94.234375 39.210938 -97.84375 39.210938 -102.203125 Z M 39.210938 -81.664062 L 14.9375 -81.664062 L 14.9375 -79.046875 L 24.398438 -79.046875 L 24.398438 14.316406 C 24.398438 22.28125 23.527344 25.519531 21.164062 28.257812 C 19.296875 30.375 17.054688 31.371094 13.816406 31.371094 C 12.449219 31.371094 11.203125 31.121094 10.207031 30.625 C 14.566406 29.628906 17.179688 26.390625 17.179688 22.160156 C 17.179688 17.304688 13.570312 13.691406 8.464844 13.691406 C 3.609375 13.691406 0 17.304688 0 22.28125 C 0 29.003906 6.597656 33.984375 14.9375 33.984375 C 31.992188 33.984375 39.210938 21.410156 39.210938 5.105469 Z M 39.210938 -81.664062 "/></g></g><g style="fill:#000000;fill-opacity:1;"><g transform="translate(105.563591, 605.162102)"><path style="stroke:none" d="M 77.554688 -44.9375 C 77.554688 -56.890625 74.941406 -64.609375 68.09375 -72.078125 C 61.746094 -78.921875 52.035156 -82.78125 42.824219 -82.78125 C 27.761719 -82.78125 14.191406 -73.195312 9.957031 -59.253906 C 8.464844 -54.523438 8.089844 -50.664062 8.089844 -45.3125 L 8.089844 -36.597656 C 8.089844 -24.648438 10.707031 -16.929688 17.550781 -9.460938 C 23.902344 -2.613281 33.609375 1.246094 42.824219 1.246094 C 57.886719 1.246094 71.453125 -8.339844 75.6875 -22.28125 C 77.179688 -27.011719 77.554688 -30.871094 77.554688 -36.226562 Z M 62.742188 -30.25 C 62.742188 -18.300781 60.75 -12.199219 56.890625 -7.84375 C 53.28125 -3.734375 48.671875 -1.371094 42.824219 -1.371094 C 36.472656 -1.371094 31.246094 -4.234375 28.007812 -8.714844 C 24.148438 -13.941406 22.90625 -19.542969 22.90625 -31.246094 L 22.90625 -51.289062 C 22.90625 -63.238281 24.898438 -69.339844 28.757812 -73.695312 C 32.367188 -77.804688 36.972656 -80.167969 42.824219 -80.167969 C 49.171875 -80.167969 54.398438 -77.304688 57.636719 -72.824219 C 61.496094 -67.59375 62.742188 -61.992188 62.742188 -50.292969 Z M 62.742188 -30.25 "/></g></g><g style="fill:#000000;fill-opacity:1;"><g transform="translate(191.203411, 605.162102)"><path style="stroke:none" d="M 67.84375 -31.246094 C 67.84375 -19.542969 66.597656 -13.941406 62.742188 -8.714844 C 59.503906 -4.234375 54.277344 -1.371094 47.925781 -1.371094 C 42.074219 -1.371094 37.46875 -3.734375 33.859375 -7.84375 C 30 -12.199219 28.007812 -18.300781 28.007812 -30.25 L 28.007812 -65.605469 C 31.742188 -74.816406 39.960938 -80.167969 48.050781 -80.167969 C 55.148438 -80.167969 60.125 -76.308594 62.742188 -72.824219 C 67.71875 -66.101562 67.84375 -58.882812 67.84375 -49.546875 Z M 13.195312 -36.226562 C 13.195312 -30.871094 13.570312 -27.011719 15.0625 -22.28125 C 19.296875 -8.339844 32.863281 1.246094 47.925781 1.246094 C 57.136719 1.246094 66.847656 -2.613281 73.195312 -9.460938 C 80.042969 -16.929688 82.65625 -24.648438 82.65625 -36.597656 L 82.65625 -45.3125 C 82.65625 -56.144531 79.671875 -64.730469 73.695312 -71.453125 C 67.71875 -78.175781 58.382812 -82.78125 48.671875 -82.78125 C 39.835938 -82.78125 31.867188 -77.804688 28.007812 -71.207031 L 28.007812 -114.527344 L 4.605469 -114.527344 L 4.605469 -111.910156 L 13.195312 -111.910156 Z M 13.195312 -36.226562 "/></g></g><g style="fill:#000000;fill-opacity:1;"><g transform="translate(282.569156, 605.162102)"><path style="stroke:none" d=""/></g></g><g style="fill:#000000;fill-opacity:1;"><g transform="translate(344.309479, 605.162102)"><path style="stroke:none" d="M 61.746094 0 L 93.238281 0 L 93.238281 -2.613281 L 84.898438 -2.613281 L 84.898438 -45.3125 C 84.898438 -54.523438 82.65625 -62.617188 78.921875 -67.347656 C 84.773438 -74.816406 94.109375 -80.167969 103.945312 -80.167969 C 111.289062 -80.167969 116.640625 -77.179688 119.753906 -72.699219 C 123.363281 -67.59375 124.734375 -61.371094 124.734375 -51.289062 L 124.734375 -2.613281 L 116.394531 -2.613281 L 116.394531 0 L 148.136719 0 L 148.136719 -2.613281 L 139.546875 -2.613281 L 139.546875 -45.808594 C 139.546875 -59.628906 134.691406 -69.214844 124.984375 -76.308594 C 119.132812 -80.542969 111.910156 -82.78125 104.941406 -82.78125 C 94.734375 -82.78125 85.644531 -78.800781 77.304688 -69.710938 C 75.066406 -72.699219 71.953125 -75.3125 68.714844 -77.429688 C 63.488281 -80.789062 56.640625 -82.78125 50.292969 -82.78125 C 37.097656 -82.78125 24.773438 -75.4375 18.796875 -63.238281 C 15.683594 -56.890625 15.4375 -49.421875 15.4375 -40.207031 L 15.4375 -2.613281 L 6.847656 -2.613281 L 6.847656 0 L 38.589844 0 L 38.589844 -2.613281 L 30.25 -2.613281 L 30.25 -54.773438 C 30.25 -70.707031 38.589844 -80.167969 50.167969 -80.167969 C 61.746094 -80.167969 70.085938 -70.707031 70.085938 -54.773438 L 70.085938 -2.613281 L 61.746094 -2.613281 Z M 61.746094 0 "/></g></g><g style="fill:#000000;fill-opacity:1;"><g transform="translate(499.282706, 605.162102)"><path style="stroke:none" d="M 63.363281 -15.933594 C 59.628906 -6.722656 51.414062 -1.371094 43.320312 -1.371094 C 36.226562 -1.371094 31.246094 -5.226562 28.632812 -8.714844 C 23.652344 -15.4375 23.527344 -22.65625 23.527344 -31.992188 L 23.527344 -51.289062 C 23.527344 -63.238281 25.519531 -69.339844 29.378906 -73.695312 C 32.988281 -77.804688 37.59375 -80.167969 43.445312 -80.167969 C 49.792969 -80.167969 55.023438 -77.304688 58.257812 -72.824219 C 62.117188 -67.59375 63.363281 -61.992188 63.363281 -50.292969 Z M 78.175781 -44.9375 C 78.175781 -56.890625 75.5625 -64.609375 68.714844 -72.078125 C 62.367188 -78.921875 52.65625 -82.78125 43.445312 -82.78125 C 28.382812 -82.78125 14.8125 -73.195312 10.582031 -59.253906 C 9.085938 -54.523438 8.714844 -50.664062 8.714844 -45.3125 L 8.714844 -36.226562 C 8.714844 -25.394531 11.703125 -16.804688 17.675781 -10.082031 C 23.652344 -3.359375 32.988281 1.246094 42.699219 1.246094 C 51.535156 1.246094 59.628906 -3.734375 63.488281 -10.332031 L 63.488281 0 L 86.765625 0 L 86.765625 -2.613281 L 78.175781 -2.613281 Z M 78.175781 -44.9375 "/></g></g><g style="fill:#000000;fill-opacity:1;"><g transform="translate(590.648485, 605.162102)"><path style="stroke:none" d="M 71.207031 -81.664062 L 9.335938 -81.664062 L 9.335938 -52.40625 L 11.949219 -52.40625 L 11.949219 -79.046875 L 52.90625 -79.046875 L 9.460938 0 L 70.335938 0 L 70.335938 -28.257812 L 67.71875 -28.257812 L 67.71875 -2.613281 L 28.132812 -2.613281 Z M 71.207031 -81.664062 "/></g></g><g style="fill:#000000;fill-opacity:1;"><g transform="translate(669.93997, 605.162102)"><path style="stroke:none" d="M 78.050781 -38.964844 L 78.050781 -44.691406 C 78.050781 -59.628906 74.070312 -67.222656 66.476562 -74.191406 C 60.5 -79.671875 51.414062 -82.78125 43.445312 -82.78125 C 22.90625 -82.78125 8.714844 -67.347656 8.714844 -46.183594 L 8.714844 -36.226562 C 8.714844 -24.523438 11.328125 -16.804688 17.800781 -9.710938 C 23.902344 -3.113281 33.113281 1.246094 44.191406 1.246094 C 58.757812 1.246094 69.960938 -6.472656 76.683594 -21.164062 L 74.316406 -22.28125 C 67.222656 -7.84375 57.636719 -1.371094 44.566406 -1.371094 C 34.855469 -1.371094 28.757812 -5.976562 25.894531 -13.195312 C 23.777344 -18.546875 23.527344 -25.394531 23.527344 -34.605469 L 23.527344 -38.964844 Z M 63.363281 -41.578125 L 23.527344 -41.578125 L 23.527344 -51.289062 C 23.527344 -63.238281 25.519531 -69.339844 29.378906 -73.695312 C 32.988281 -77.804688 37.59375 -80.167969 43.445312 -80.167969 C 49.792969 -80.167969 55.023438 -77.304688 58.257812 -72.824219 C 62.117188 -67.59375 63.363281 -61.992188 63.363281 -50.292969 Z M 63.363281 -41.578125 "/></g></g><g clip-rule="nonzero" clip-path="url(#165237c15d)"><path style=" stroke:none;fill-rule:nonzero;fill:#2aa9df;fill-opacity:1;" d="M 348.472656 365.445312 L 348.472656 341.0625 L 517.035156 341.0625 L 517.035156 365.445312 Z M 348.472656 365.445312 "/></g><g clip-rule="nonzero" clip-path="url(#65f467785b)"><path style=" stroke:none;fill-rule:nonzero;fill:#2aa9df;fill-opacity:1;" d="M 396.984375 221.0625 L 396.984375 196.683594 L 517.074219 196.683594 L 517.074219 221.0625 Z M 396.984375 221.0625 "/></g><g clip-rule="nonzero" clip-path="url(#e4adc9bbcd)"><path style=" stroke:none;fill-rule:nonzero;fill:#f49422;fill-opacity:1;" d="M 396.988281 317.449219 L 396.988281 293.066406 L 469.269531 293.066406 L 469.269531 317.449219 Z M 396.988281 317.449219 "/></g><g clip-rule="nonzero" clip-path="url(#9d7df612ba)"><path style=" stroke:none;fill-rule:nonzero;fill:#f49422;fill-opacity:1;" d="M 493.296875 245.152344 L 517.679688 245.152344 L 517.679688 365.433594 L 493.296875 365.433594 Z M 493.296875 245.152344 "/></g><g clip-rule="nonzero" clip-path="url(#6f315f2ef5)"><path style=" stroke:none;fill-rule:nonzero;fill:#22ae4e;fill-opacity:1;" d="M 396.984375 198.660156 L 421.367188 198.660156 L 421.367188 317.414062 L 396.984375 317.414062 Z M 396.984375 198.660156 "/></g><g clip-rule="nonzero" clip-path="url(#2a8b494a3c)"><path style=" stroke:none;fill-rule:nonzero;fill:#e92027;fill-opacity:1;" d="M 445.367188 221.066406 L 469.746094 221.066406 L 469.746094 269.828125 L 445.367188 269.828125 Z M 445.367188 221.066406 "/></g><g clip-rule="nonzero" clip-path="url(#4a91414fae)"><g clip-rule="nonzero" clip-path="url(#ba82e109e7)"><g clip-rule="nonzero" clip-path="url(#0032ce3df8)"><g clip-rule="nonzero" clip-path="url(#5f84cce8aa)"><path style=" stroke:none;fill-rule:nonzero;fill:#000000;fill-opacity:1;" d="M 446.9375 151.742188 C 413.152344 147.175781 377.625 155.515625 348.359375 177.839844 C 293.789062 219.464844 280.289062 295.015625 314.839844 352.527344 L 298.414062 365.058594 C 290.917969 362.785156 282.488281 363.960938 275.789062 369.078125 L 201.933594 425.417969 C 190.839844 433.875 188.699219 449.726562 197.148438 460.828125 C 201.367188 466.378906 207.441406 469.6875 213.839844 470.554688 C 220.242188 471.417969 226.976562 469.835938 232.515625 465.605469 L 306.371094 409.269531 C 313.078125 404.15625 316.449219 396.339844 316.25 388.503906 L 332.679688 375.96875 C 354.109375 398.511719 382.007812 412.128906 411.21875 416.074219 C 445.003906 420.640625 480.535156 412.300781 509.800781 389.976562 C 568.328125 345.332031 579.636719 261.648438 535.054688 203.070312 C 512.765625 173.777344 480.722656 156.308594 446.9375 151.742188 Z M 491.957031 366.53125 C 469.90625 383.351562 442.636719 390.570312 415.167969 386.855469 C 387.699219 383.144531 363.324219 368.949219 346.527344 346.878906 C 329.734375 324.808594 322.53125 297.511719 326.246094 270.011719 C 329.960938 242.515625 344.152344 218.105469 366.203125 201.285156 C 388.25 184.464844 415.523438 177.246094 442.988281 180.957031 C 470.457031 184.671875 494.835938 198.867188 511.628906 220.9375 C 528.425781 243.007812 535.628906 270.304688 531.910156 297.804688 C 528.195312 325.304688 514.003906 349.710938 491.957031 366.53125 Z M 491.957031 366.53125 "/></g></g></g></g></g></svg>